<?xml version="1.0" encoding="UTF-8"?>
<svg width="1024px" height="1024px" viewBox="0 0 1024 1024" version="1.1" xmlns="http://www.w3.org/2000/svg" xmlns:xlink="http://www.w3.org/1999/xlink">
    <title>assets/icon</title>
    <g id="/assets/icon" stroke="none" stroke-width="1" fill="none" fill-rule="evenodd">
        <path d="M102.247278,46.2533326 C116.938647,46.030674 131.67642,51.5806218 143.556279,62.8705722 L511.457523,430.874581 L877.024504,66.2905583 C888.260461,54.4657931 902.920397,48.5860096 917.7187,48.5860096 C932.454975,48.5860096 947.376994,54.4271771 959.1782,66.2316796 C970.392225,77.4488366 975.993809,92.0948447 975.993809,106.73808 C975.993809,121.381315 970.392225,136.027323 959.185268,147.2374 L593.549406,514.06067 L962.468354,880.911949 C973.654623,892.097467 978.968582,906.370868 978.746442,920.813981 C978.523924,935.28172 972.715805,949.962953 961.503722,961.801235 C949.476772,973.211952 934.602205,978.753094 920.054365,978.753094 C905.347792,978.753094 890.968617,973.106418 880.31855,961.869772 L512.556617,595.09026 L148.015584,959.733119 C136.800821,970.951015 122.157854,976.554207 107.517828,976.554207 C92.8778025,976.554207 78.2348356,970.951015 67.0181638,959.734325 C55.2076997,948.474215 49.0529696,933.46566 48.8262086,918.495255 C48.6006589,903.604813 54.2207805,888.743798 65.979661,877.561948 L429.379576,512.975446 L62.6820005,144.005028 C51.4188614,133.321608 45.4842915,118.558228 45.2538998,103.809039 C45.0246128,89.1305774 50.4301017,74.5145138 61.6533452,63.9041515 C73.3582049,52.2593401 87.8124239,46.4721036 102.247278,46.2533326 Z" id="X" stroke="#000000" stroke-width="13.5061873" fill-rule="nonzero"></path>
    </g>
</svg>