<?xml version="1.0" encoding="UTF-8"?>
<svg width="1024px" height="1024px" viewBox="0 0 1024 1024" version="1.1" xmlns="http://www.w3.org/2000/svg" xmlns:xlink="http://www.w3.org/1999/xlink">
    <!-- Generator: Sketch 47.1 (45422) - http://www.bohemiancoding.com/sketch -->
    <title>B/W</title>
    <desc>Created with Sketch.</desc>
    <defs></defs>
    <g id="Page-1" stroke="none" stroke-width="1" fill="none" fill-rule="evenodd">
        <g id="B/W" stroke="#000000" stroke-width="35">
            <g id="icon" transform="translate(22.000000, 22.000000)">
                <rect id="Rectangle" x="0" y="0" width="981" height="981" rx="200"></rect>
            </g>
            <g id="Sines" transform="translate(28.000000, 470.000000)">
                <polyline id="b" points="0.847375535 396.196278 1.8212971 393.624841 2.79351898 391.04401 3.76744055 388.453786 4.74136212 385.85182 5.71528368 383.242809 6.68750556 380.624405 7.66142713 377.996607 8.6353487 375.357068 9.60927026 372.712831 10.5814921 370.056854 11.5554137 367.393831 12.5293353 364.723763 13.5032568 362.04665 14.4754787 359.360144 15.4511 356.668941 16.4233219 353.968344 17.3972434 351.263051 18.3694653 348.550713 19.3450866 345.83133 20.3173084 343.10725 21.29123 340.378473 22.2634519 337.645 23.2390731 334.904482 24.211295 332.159267 25.1852166 329.409355 26.1574385 326.657095 27.1330597 323.900139 28.1052816 321.140834 29.0792032 318.374484 30.051425 315.608134 31.0270463 312.839435 31.9992682 310.063692 32.9731897 307.287948 33.9454116 304.512205 34.9210329 301.731765 35.8932548 298.951325 36.8671763 296.168536 37.8393982 293.385748 38.8150195 290.602959 39.7872413 287.815474 40.7611629 285.032686 41.7333848 282.247549 42.709006 279.462412 43.6812279 276.679624 44.6551495 273.894487 45.6273714 271.114047 46.6029926 268.333607 47.5752145 265.553166 48.5491361 262.777423 49.5213579 260.00168 50.4969792 257.228284 51.4692011 254.459586 52.4431226 251.690888 53.4153445 248.926886 54.3909658 246.167581 55.3631877 243.410624 56.3371092 240.658364 57.3093311 237.908453 58.2849524 235.165586 59.2571742 232.425068 60.2310958 229.691595 61.2033177 226.962818 62.1789389 224.238738 63.1511608 221.521703 64.1250824 218.809365 65.0973043 216.104072 66.0729255 213.405824 67.0451474 210.714621 68.019069 208.030463 68.9912908 205.35335 69.9669121 202.683282 70.939134 200.020259 71.9130555 197.36663 72.8869771 194.722394 73.8608987 192.085203 74.8331206 189.457405 75.8070421 186.839001 76.7809637 184.227641 77.7548853 181.628024 78.7271071 179.0378 79.7010287 176.459317 80.6749503 173.890228 81.6488718 171.330532 82.6210937 168.782578 83.5950153 166.246366 84.5689369 163.719547 85.5428584 161.206818 86.5150803 158.705831 87.4890019 156.216586 88.4629234 153.739082 89.436845 151.27332 90.4090669 148.8193 91.3829885 146.381718 92.35691 143.955878 93.3308316 141.54178 94.3030535 139.14412 95.276975 136.758202 96.2508966 134.386373 97.2248182 132.030984 98.19704 129.689684 99.1709616 127.362475 100.144883 125.049355 101.118805 122.752674 102.091027 120.472431 103.064948 118.206279 104.03887 115.956564 105.012791 113.723289 105.985013 111.506451 106.958935 109.306052 107.932856 107.119743 108.906778 104.954569 109.879 102.805834 110.852921 100.671189 111.826843 98.5576785 112.800764 96.4606067 113.772986 94.3823216 114.746908 92.320475 115.72083 90.2797634 116.694751 88.2554903 117.666973 86.2500039 118.640895 84.2656527 119.614816 82.2977398 120.588738 80.3509621 121.56096 78.4229711 122.534881 76.5137668 123.508803 74.6256977 124.482724 72.7587637 125.454946 70.9106164 126.428868 69.0812559 127.402789 67.2753788 128.376711 65.4882885 129.348933 63.7223333 130.322854 61.9798615 131.296776 60.2561765 132.270697 58.555975 133.242919 56.8745602 134.216841 55.2166288 135.190762 53.5821809 136.164684 51.9688681 137.136906 50.3766904 138.112527 48.8056478 139.084749 47.260437 140.058671 45.7363613 141.030892 44.235769 142.006514 42.7563119 142.978736 41.3026865 143.952657 39.8701962 144.924879 38.4611894 145.9005 37.075666 146.872722 35.7136261 147.846644 34.377418 148.818866 33.062345 149.794487 31.7731037 150.766709 30.5073459 151.74063 29.2674199 152.712852 28.0509774 153.688473 26.8580183 154.660695 25.690891 155.634617 24.5472471 157.094649 22.8799224 158.554682 21.2689579 160.014714 19.7143537 161.476447 18.2161098 162.934779 16.7765745 164.394812 15.3933995 165.856544 14.0689331 167.316577 12.8008269 168.776609 11.5937778 170.236642 10.4430889 171.696674 9.35345692 173.156707 8.3225336 174.618439 7.35031889 176.076772 6.43681281 177.538504 5.58436368 178.998536 4.79062318 180.458569 4.05793963 181.918601 3.38631305 183.378634 2.77339508 184.838666 2.22388243 186.300399 1.73307838 187.758731 1.30333131 189.220464 0.934641188 190.680496 0.627008033 192.140529 0.38043184 193.600561 0.19491261 195.060594 0.0704503408 196.520626 0.00704503408 197.982358 0.00469668939 199.442391 0.0634053067 200.902423 0.183170886 202.362456 0.363993428 203.822488 0.608221276 205.282521 0.911157741 206.742553 1.27749951 208.202586 1.7025499 209.664318 2.18865726 211.124351 2.73582157 212.584383 3.34404284 214.044416 4.01097274 215.504448 4.73895959 216.964481 5.52800341 218.424513 6.37810419 219.884546 7.28456524 221.346278 8.25208326 222.80631 9.28065823 224.266343 10.3679418 225.726375 11.513934 227.186408 12.7186349 228.64644 13.979696 230.108173 15.301814 231.566505 16.6802924 233.028238 18.1174793 234.48827 19.6110265 235.948303 21.160934 237.408335 22.7695502 238.868368 24.4345265 239.842289 25.5734737 240.816211 26.7382527 241.790132 27.9288635 242.762354 29.1429577 243.736276 30.3805353 244.710197 31.6439448 245.684119 32.9308376 246.656341 34.241214 247.630262 35.5774221 248.604184 36.9371137 249.578105 38.3179404 250.550327 39.7245989 251.524249 41.1547408 252.49817 42.6060178 253.472092 44.0831266 254.444314 45.5813705 255.418235 47.1030979 256.392157 48.6483087 257.366079 50.2170029 258.3383 51.804484 259.312222 53.4154484 260.286144 55.0498963 261.260065 56.7054793 262.232287 58.3845458 263.206209 60.082399 264.18013 61.8037357 265.154052 63.5438591 266.126274 65.307466 267.100195 67.0922079 268.074117 68.898085 269.048038 70.7227488 270.02026 72.5685477 270.994182 74.4331334 271.968103 76.3212026 272.942025 78.2280585 273.914247 80.1537011 274.888168 82.0981305 275.86209 84.063695 276.836011 86.0480463 277.808233 88.0511843 278.782155 90.0731091 279.756077 92.1114723 280.729998 94.1709706 281.70222 96.2492556 282.676142 98.3439791 283.650063 100.457489 284.623985 102.587438 285.596207 104.733825 286.570128 106.898999 287.54405 109.080611 288.517971 111.28101 289.490193 113.495499 290.464115 115.728775 291.438036 117.976141 292.411958 120.239945 293.385879 122.520188 294.358101 124.814521 295.332023 127.125292 296.305944 129.450153 297.279866 131.791453 298.252088 134.146842 299.226009 136.516322 300.199931 138.899892 301.173853 141.297552 302.146074 143.709302 303.119996 146.132794 304.093918 148.570375 305.067839 151.022047 306.040061 153.485461 307.013983 155.962965 307.987904 158.449862 308.961826 160.953197 309.934048 163.465926 310.907969 165.988048 311.881891 168.52426 312.855812 171.072214 313.828034 173.629562 314.801956 176.196302 315.775877 178.777133 316.749799 181.365009 317.722021 183.964627 318.695942 186.571289 319.669864 189.189694 320.643785 191.817491 321.616007 194.452334 322.589929 197.09657 323.56385 199.7502 324.537772 202.410874 325.509994 205.080942 326.483915 207.755707 327.457837 210.439865 328.431759 213.131068 329.40398 215.829316 330.377902 218.534609 331.351824 221.244599 332.325745 223.961634 333.297967 226.685713 334.271889 229.412142 335.24581 232.147963 336.219732 234.886133 337.191954 237.629 338.165875 240.376563 339.139797 243.128823 340.113718 245.88578 341.08594 248.647433 342.059862 251.409086 343.033783 254.177785 344.007705 256.946483 344.979927 259.71753 345.953848 262.493273 346.92777 265.271365 347.901692 268.049457 348.873913 270.829897 349.847835 273.612685 350.821757 276.395474 351.795678 279.178262 352.7679 281.963399 353.741822 284.748536 354.715743 287.533673 355.689665 290.31881 356.663586 293.101598 357.635808 295.886735 358.60973 298.667175 359.583651 301.449963 360.557573 304.228055 361.529795 307.006147 362.503716 309.78189 363.477638 312.555285 364.451559 315.326332 365.423781 318.095031 366.397703 320.859032 367.371624 323.618337 368.345546 326.377642 369.317768 329.129902 370.291689 331.879814 371.265611 334.625029 372.239533 337.365547 373.211754 340.101369 374.185676 342.830145 375.159598 345.554225 376.133519 348.273608 377.105741 350.988295 378.079663 353.693588 379.053584 356.391836 380.027506 359.085387 380.999728 361.771894 381.973649 364.451355 382.947571 367.123771 383.921492 369.786794 384.893714 372.440423 385.867636 375.087008 386.841557 377.726547 387.815479 380.354345 388.787701 382.977446 389.761622 385.588805 390.735544 388.188423 391.709465 390.780996 392.681687 393.364175 393.655609 395.933264 394.62953 398.495308 395.603452 401.04561 396.575674 403.584171 397.549595 406.11099 398.523517 408.628415 399.497439 411.134099 400.469661 413.623344 401.443582 416.105545 402.417504 418.573655 403.391425 421.027675 404.363647 423.469954 405.337569 425.898142 406.31149 428.31224 407.285412 430.716945 408.257634 433.102864 409.231555 435.47704 410.205477 437.837127 411.179398 440.180775 412.15162 442.510332 413.125542 444.828149 414.099463 447.127178 415.073385 449.412118 416.045607 451.680619 417.019528 453.932681 417.99345 456.170654 418.967372 458.389839 419.941293 460.592587 420.913515 462.781244 421.887437 464.951114 422.861358 467.104546 423.83528 469.239192 424.807502 471.357399 425.781423 473.459167 426.755345 475.542149 427.729266 477.606344 428.701488 479.651752 429.67541 481.678374 430.649331 483.686208 431.623253 485.677605 432.595475 487.647866 433.569396 489.59934 434.543318 491.52968 435.517239 493.443581 436.489461 495.333998 437.463383 497.207977 438.437304 499.058473 439.411226 500.89253 440.383448 502.703104 441.357369 504.492542 442.331291 506.263194 443.305213 508.010363 444.277434 509.736396 445.251356 511.443643 446.225278 513.127406 447.199199 514.790034 448.171421 516.429178 449.145343 518.047188 450.119264 519.644062 451.093186 521.217453 452.065408 522.769709 453.039329 524.296133 454.013251 525.80377 454.987172 527.287924 455.959394 528.746246 456.933316 530.183433"></polyline>
                <polyline id="g" points="333.949766 523.692609 334.923688 522.154443 335.897609 520.592794 336.871531 519.010009 337.843753 517.40609 338.817674 515.778687 339.791596 514.130149 340.765517 512.458128 341.737739 510.767319 342.711661 509.053028 343.685582 507.317601 344.659504 505.561039 345.631726 503.783342 346.605648 501.982162 347.579569 500.164543 348.553491 498.325789 349.525713 496.4659 350.499634 494.584876 351.473556 492.682717 352.447477 490.764119 353.419699 488.824387 354.393621 486.865867 355.367542 484.886212 356.341464 482.89012 357.313686 480.872891 358.287607 478.839225 359.261529 476.786772 360.23545 474.713183 361.207672 472.623157 362.181594 470.516691 363.155515 468.391439 364.129437 466.249749 365.101659 464.089272 366.07558 461.912356 367.049502 459.716654 368.023424 457.506862 368.995645 455.280631 369.969567 453.037962 370.943489 450.778854 371.91741 448.503308 372.891332 446.211324 373.863554 443.907598 374.837475 441.587433 375.811397 439.25083 376.785318 436.900137 377.75754 434.535354 378.731462 432.154132 379.705383 429.763517 380.679305 427.354116 381.651527 424.932972 382.625448 422.500087 383.59937 420.053112 384.573291 417.592047 385.545513 415.11924 386.519435 412.634691 387.493356 410.136053 388.467278 407.62802 389.4395 405.108247 390.413421 402.574383 391.387343 400.031125 392.361265 397.476126 393.333486 394.911734 394.307408 392.3356 395.28133 389.750072 396.255251 387.155151 397.227473 384.550837 398.201395 381.932433 399.175316 379.309332 400.149238 376.676837 401.12146 374.03495 402.095381 371.383668 403.069303 368.725342 404.043224 366.059971 405.015446 363.385206 405.989368 360.703397 406.963289 358.014542 407.937211 355.318642 408.909433 352.615698 409.883354 349.908056 410.857276 347.191021 411.831197 344.46929 412.803419 341.742862 413.777341 339.011737 414.751263 336.273567 415.725184 333.533049 416.697406 330.785485 417.671328 328.033225 418.645249 325.278617 419.619171 322.52166 420.591393 319.757659 421.565314 316.991309 422.539236 314.22261 423.513157 311.451563 424.485379 308.67582 425.459301 305.900077 426.433222 303.121985 427.407144 300.341545 428.379366 297.561105 429.353287 294.778316 430.327209 291.995528 431.30113 289.210391 432.273352 286.422906 433.247274 283.640117 434.221195 280.85498 435.195117 278.069844 436.169039 275.287055 437.14126 272.504267 438.115182 269.723827 439.089104 266.943386 440.063025 264.165295 441.035247 261.389551 442.009169 258.613808 442.98309 255.842761 443.957012 253.074063 444.929234 250.310061 445.903155 247.546059 446.877077 244.786754 447.850998 242.034494 448.82322 239.282234 449.797142 236.537019 450.771063 233.794153 451.744985 231.058331 452.717207 228.324858 453.691128 225.600778 454.66505 222.879047 455.638971 220.16436 456.611193 217.456719 457.585115 214.753774 458.559036 212.057874 459.532958 209.371368 460.50518 206.689558 461.479101 204.017142 462.453023 201.349422 463.426945 198.693445 464.399166 196.042163 465.373088 193.402624 466.34701 190.77013 467.320931 188.147029 468.293153 185.533321 469.267075 182.926658 470.240996 180.334086 471.214918 177.748558 472.18714 175.172424 473.161061 172.61038 474.134983 170.055381 475.108904 167.514472 476.081126 164.982957 477.055048 162.463183 478.028969 159.955151 479.002891 157.45886 479.975113 154.974311 480.949034 152.503853 481.922956 150.045136 482.896878 147.598161 483.869099 145.165276 484.843021 142.746481 485.816943 140.339427 486.790864 137.948812 487.763086 135.569939 488.737008 133.207504 489.710929 130.856811 490.684851 128.522557 491.657073 126.202392 492.630994 123.898666 493.604916 121.60903 494.578837 119.338181 495.551059 117.079073 496.524981 114.838752 497.498902 112.612521 498.472824 110.402729 499.446745 108.211724 500.418967 106.037156 501.392889 103.876679 502.36681 101.734989 503.340732 99.6120852 504.312954 97.5079684 505.286875 95.42029 506.260797 93.3490499 507.234719 91.298945 508.20694 89.2652785 509.180862 87.2503988 510.154784 85.2543058 511.128705 83.2793479 512.100927 81.3208284 513.074849 79.383444 514.04877 77.4671948 515.022692 75.5673839 515.994914 73.6887082 516.968835 71.8311675 517.942757 69.9924136 518.916678 68.1747948 519.8889 66.3783111 520.862822 64.6029625 521.836743 62.8487491 522.810665 61.1156707 523.782887 59.4037274 524.756808 57.7129192 525.73073 56.0432461 526.704651 54.3970565 527.676873 52.772002 528.650795 51.1680825 529.624716 49.5876466 530.598638 48.030694 531.57086 46.4948766 532.544781 44.9825426 533.518703 43.4936921 534.492625 42.0259767 535.464847 40.5817447 536.438768 39.1609961 537.41269 37.7660794 538.386611 36.3922977 539.358833 35.0443479 540.332755 33.7175331 541.306676 32.4142018 542.280598 31.1367023 543.25282 29.8850346 544.226741 28.654502 545.688473 26.8580183 547.146806 25.1155465 548.606839 23.429435 550.068571 21.7996838 551.528603 20.2262929 552.988636 18.7092622 554.448668 17.2485918 555.908701 15.8489783 557.370433 14.5033768 558.828766 13.2164839 560.288798 11.9882997 561.750531 10.8211724 563.210563 9.70805697 564.670596 8.65834689 566.130628 7.66734543 567.590661 6.73505258 569.050693 5.86146836 570.512425 5.04894109 571.970758 4.29512245 573.43249 3.60470911 574.892523 2.97065604 576.352555 2.40000828 577.812588 1.89041748 579.758731 1.30333131 581.706575 0.824268988 583.652718 0.455578871 585.600561 0.19491261 587.546705 0.0422702045 589.494548 -5.68434189e-14 591.442391 0.0634053067 593.388534 0.237182814 595.336377 0.518984177 597.282521 0.911157741 599.230364 1.41135516 601.176507 2.01957644 602.63654 2.54560565 604.096572 3.13504017 605.558305 3.78083496 607.018337 4.49003506 608.47837 5.25794377 609.938402 6.08690945 611.398435 6.97458374 612.858467 7.923315 614.3185 8.93075487 615.778532 9.99925171 617.240264 11.1241088 618.700297 12.3100229 620.160329 13.5522972 621.620362 14.8532802 623.080394 16.2153201 624.540427 17.631372 626.002159 19.1061324 627.460492 20.6372532 628.922224 22.2270825 630.382257 23.8732722 631.842289 25.5734737 633.302322 27.3300356 634.762354 29.1429577 635.736276 30.3805353 636.710197 31.6439448 637.684119 32.9308376 638.656341 34.241214 639.630262 35.5774221 640.604184 36.9371137 641.578105 38.3179404 642.550327 39.7245989 643.524249 41.1547408 644.49817 42.6060178 645.472092 44.0831266 646.444314 45.5813705 647.418235 47.1030979 648.392157 48.6483087 649.366079 50.2170029 650.3383 51.804484 651.312222 53.4154484 652.286144 55.0498963 653.260065 56.7054793 654.232287 58.3845458 655.206209 60.082399 656.18013 61.8037357 657.154052 63.5438591 658.126274 65.307466 659.100195 67.0922079 660.074117 68.898085 661.048038 70.7227488 662.02026 72.5685477 662.994182 74.4331334 663.968103 76.3212026 664.942025 78.2280585 665.914247 80.1537011 666.888168 82.0981305 667.86209 84.063695 668.836011 86.0480463 669.808233 88.0511843 670.782155 90.0731091 671.756077 92.1114723 672.729998 94.1709706 673.70222 96.2492556 674.676142 98.3439791 675.650063 100.457489 676.623985 102.587438 677.596207 104.733825 678.570128 106.898999 679.54405 109.080611 680.517971 111.28101 681.490193 113.495499 682.464115 115.728775 683.438036 117.976141 684.411958 120.239945 685.385879 122.520188 686.358101 124.814521 687.332023 127.125292 688.305944 129.450153 689.279866 131.791453 690.252088 134.146842 691.226009 136.516322 692.199931 138.899892 693.173853 141.297552 694.146074 143.709302 695.119996 146.132794 696.093918 148.570375 697.067839 151.022047 698.040061 153.485461 699.013983 155.962965 699.987904 158.449862 700.961826 160.953197 701.934048 163.465926 702.907969 165.988048 703.881891 168.52426 704.855812 171.072214 705.828034 173.629562 706.801956 176.196302 707.775877 178.777133 708.749799 181.365009 709.722021 183.964627 710.695942 186.571289 711.669864 189.189694 712.643785 191.817491 713.616007 194.452334 714.589929 197.09657 715.56385 199.7502 716.537772 202.410874 717.509994 205.080942 718.483915 207.755707 719.457837 210.439865 720.431759 213.131068 721.40398 215.829316 722.377902 218.534609 723.351824 221.244599 724.325745 223.961634 725.297967 226.685713 726.271889 229.412142 727.24581 232.147963 728.219732 234.886133 729.191954 237.629 730.165875 240.376563 731.139797 243.128823 732.113718 245.88578 733.08594 248.647433 734.059862 251.409086 735.033783 254.177785 736.007705 256.946483 736.979927 259.71753 737.953848 262.493273 738.92777 265.271365 739.901692 268.049457 740.873913 270.829897 741.847835 273.612685 742.821757 276.395474 743.795678 279.178262 744.7679 281.963399 745.741822 284.748536 746.715743 287.533673 747.689665 290.31881 748.663586 293.101598 749.635808 295.886735 750.60973 298.667175 751.583651 301.449963 752.557573 304.228055 753.529795 307.006147 754.503716 309.78189 755.477638 312.555285 756.451559 315.326332 757.423781 318.095031 758.397703 320.859032 759.371624 323.618337 760.345546 326.377642 761.317768 329.129902 762.291689 331.879814 763.265611 334.625029 764.239533 337.365547 765.211754 340.101369 766.185676 342.830145 767.159598 345.554225 768.133519 348.273608 769.105741 350.988295 770.079663 353.693588 771.053584 356.391836 772.027506 359.085387 772.999728 361.771894 773.973649 364.451355 774.947571 367.123771 775.921492 369.786794 776.893714 372.440423 777.867636 375.087008 778.841557 377.726547 779.815479 380.354345 780.787701 382.977446 781.761622 385.588805 782.735544 388.188423 783.709465 390.780996 784.681687 393.364175 785.655609 395.933264 786.62953 398.495308 787.603452 401.04561 788.575674 403.584171 789.549595 406.11099 790.523517 408.628415 791.497439 411.134099 792.469661 413.623344 793.443582 416.105545 794.417504 418.573655 795.391425 421.027675 796.363647 423.469954 797.337569 425.898142 798.31149 428.31224 799.285412 430.716945 800.257634 433.102864 801.231555 435.47704 802.205477 437.837127 803.179398 440.180775 804.15162 442.510332 805.125542 444.828149 806.099463 447.127178 807.073385 449.412118 808.045607 451.680619 809.019528 453.932681 809.99345 456.170654 810.967372 458.389839 811.941293 460.592587 812.913515 462.781244 813.887437 464.951114 814.861358 467.104546 815.83528 469.239192 816.807502 471.357399 817.781423 473.459167 818.755345 475.542149 819.729266 477.606344 820.701488 479.651752 821.67541 481.678374 822.649331 483.686208 823.623253 485.677605 824.595475 487.647866 825.569396 489.59934 826.543318 491.52968 827.517239 493.443581 828.489461 495.333998 829.463383 497.207977 830.437304 499.058473 831.411226 500.89253 832.383448 502.703104 833.357369 504.492542 834.331291 506.263194 835.305213 508.010363 836.277434 509.736396 837.251356 511.443643 838.225278 513.127406 839.199199 514.790034 840.171421 516.429178 841.145343 518.047188 842.119264 519.644062 843.093186 521.217453 844.065408 522.769709"></polyline>
                <polyline id="r" points="462.871531 519.010009 463.843753 517.40609 464.817674 515.778687 465.791596 514.130149 466.765517 512.458128 467.737739 510.767319 468.711661 509.053028 469.685582 507.317601 470.659504 505.561039 471.631726 503.783342 472.605648 501.982162 473.579569 500.164543 474.553491 498.325789 475.525713 496.4659 476.499634 494.584876 477.473556 492.682717 478.447477 490.764119 479.419699 488.824387 480.393621 486.865867 481.367542 484.886212 482.341464 482.89012 483.313686 480.872891 484.287607 478.839225 485.261529 476.786772 486.23545 474.713183 487.207672 472.623157 488.181594 470.516691 489.155515 468.391439 490.129437 466.249749 491.101659 464.089272 492.07558 461.912356 493.049502 459.716654 494.023424 457.506862 494.995645 455.280631 495.969567 453.037962 496.943489 450.778854 497.91741 448.503308 498.891332 446.211324 499.863554 443.907598 500.837475 441.587433 501.811397 439.25083 502.785318 436.900137 503.75754 434.535354 504.731462 432.154132 505.705383 429.763517 506.679305 427.354116 507.651527 424.932972 508.625448 422.500087 509.59937 420.053112 510.573291 417.592047 511.545513 415.11924 512.519435 412.634691 513.493356 410.136053 514.467278 407.62802 515.4395 405.108247 516.413421 402.574383 517.387343 400.031125 518.361265 397.476126 519.333486 394.911734 520.307408 392.3356 521.28133 389.750072 522.255251 387.155151 523.227473 384.550837 524.201395 381.932433 525.175316 379.309332 526.149238 376.676837 527.12146 374.03495 528.095381 371.383668 529.069303 368.725342 530.043224 366.059971 531.015446 363.385206 531.989368 360.703397 532.963289 358.014542 533.937211 355.318642 534.909433 352.615698 535.883354 349.908056 536.857276 347.191021 537.831197 344.46929 538.803419 341.742862 539.777341 339.011737 540.751263 336.273567 541.725184 333.533049 542.697406 330.785485 543.671328 328.033225 544.645249 325.278617 545.619171 322.52166 546.591393 319.757659 547.565314 316.991309 548.539236 314.22261 549.513157 311.451563 550.485379 308.67582 551.459301 305.900077 552.433222 303.121985 553.407144 300.341545 554.379366 297.561105 555.353287 294.778316 556.327209 291.995528 557.30113 289.210391 558.273352 286.422906 559.247274 283.640117 560.221195 280.85498 561.195117 278.069844 562.169039 275.287055 563.14126 272.504267 564.115182 269.723827 565.089104 266.943386 566.063025 264.165295 567.035247 261.389551 568.009169 258.613808 568.98309 255.842761 569.957012 253.074063 570.929234 250.310061 571.903155 247.546059 572.877077 244.786754 573.850998 242.034494 574.82322 239.282234 575.797142 236.537019 576.771063 233.794153 577.744985 231.058331 578.717207 228.324858 579.691128 225.600778 580.66505 222.879047 581.638971 220.16436 582.611193 217.456719 583.585115 214.753774 584.559036 212.057874 585.532958 209.371368 586.50518 206.689558 587.479101 204.017142 588.453023 201.349422 589.426945 198.693445 590.399166 196.042163 591.373088 193.402624 592.34701 190.77013 593.320931 188.147029 594.293153 185.533321 595.267075 182.926658 596.240996 180.334086 597.214918 177.748558 598.18714 175.172424 599.161061 172.61038 600.134983 170.055381 601.108904 167.514472 602.081126 164.982957 603.055048 162.463183 604.028969 159.955151 605.002891 157.45886 605.975113 154.974311 606.949034 152.503853 607.922956 150.045136 608.896878 147.598161 609.869099 145.165276 610.843021 142.746481 611.816943 140.339427 612.790864 137.948812 613.763086 135.569939 614.737008 133.207504 615.710929 130.856811 616.684851 128.522557 617.657073 126.202392 618.630994 123.898666 619.604916 121.60903 620.578837 119.338181 621.551059 117.079073 622.524981 114.838752 623.498902 112.612521 624.472824 110.402729 625.446745 108.211724 626.418967 106.037156 627.392889 103.876679 628.36681 101.734989 629.340732 99.6120852 630.312954 97.5079684 631.286875 95.42029 632.260797 93.3490499 633.234719 91.298945 634.20694 89.2652785 635.180862 87.2503988 636.154784 85.2543058 637.128705 83.2793479 638.100927 81.3208284 639.074849 79.383444 640.04877 77.4671948 641.022692 75.5673839 641.994914 73.6887082 642.968835 71.8311675 643.942757 69.9924136 644.916678 68.1747948 645.8889 66.3783111 646.862822 64.6029625 647.836743 62.8487491 648.810665 61.1156707 649.782887 59.4037274 650.756808 57.7129192 651.73073 56.0432461 652.704651 54.3970565 653.676873 52.772002 654.650795 51.1680825 655.624716 49.5876466 656.598638 48.030694 657.57086 46.4948766 658.544781 44.9825426 659.518703 43.4936921 660.492625 42.0259767 661.464847 40.5817447 662.438768 39.1609961 663.41269 37.7660794 664.386611 36.3922977 665.358833 35.0443479 666.332755 33.7175331 667.306676 32.4142018 668.280598 31.1367023 669.25282 29.8850346 670.226741 28.654502 671.200663 27.4521495 672.174584 26.2709321 673.146806 25.1155465 674.120728 23.9859927 675.58246 22.3374547 677.040793 20.745277 678.500825 19.2071113 679.962558 17.7300024 681.42259 16.3092539 682.882623 14.9448656 684.342655 13.639186 685.802688 12.392215 687.26272 11.2039525 688.724452 10.0743987 690.182785 9.00355356 691.644517 7.991417 693.10455 7.03798905 694.564582 6.14561807 696.024615 5.3119557 697.484647 4.53935029 698.94468 3.82780185 700.406412 3.17496203 701.864745 2.58317916 703.326477 2.05245326 704.78651 1.58278432 706.246542 1.17417235 707.706575 0.824268988 709.166607 0.537770935 710.62664 0.312329844 712.088372 0.145597371 713.546705 0.0422702045 715.008437 -5.68434189e-14 716.468469 0.0187867576 717.928502 0.0962821325 719.388534 0.237182814 720.848567 0.439140458 722.308599 0.702155064 723.770331 1.02622663 725.230364 1.41135516 726.690396 1.85754065 728.150429 2.36478311 729.610462 2.93073418 731.070494 3.55774221 732.530527 4.24580721 733.990559 4.99492916 735.452291 5.80510808 736.912324 6.67399562 738.372356 7.60159178 739.832389 8.58789655 741.292421 9.63760663 742.752454 10.743677 744.212486 11.9084559 745.672519 13.1319435 747.134251 14.4141397 748.594283 15.7550446 750.054316 17.1523096 751.514348 18.6082834 752.974381 20.1206173 754.434413 21.6916599 755.896146 23.3167145 757.354479 25.0004776 758.3284 26.1511665 759.302322 27.3300356 760.276243 28.532388 761.248465 29.758224 762.222387 31.0098917 763.196308 32.2850429 764.17023 33.5836775 765.142452 34.9057955 766.116373 36.2537454 767.090295 37.6251787 768.064216 39.0177471 769.036438 40.4361473 770.01036 41.8780309 770.984281 43.343398 771.958203 44.8299002 772.930425 46.3398859 773.904346 47.8733549 774.878268 49.4303075 775.85219 51.0060468 776.824411 52.6076178 777.798333 54.230324 778.772255 55.8765137 779.746176 57.54149 780.720098 59.2299499 781.69232 60.9395448 782.666241 62.6726232 783.640163 64.4244883 784.614084 66.1974886 785.586306 67.9916239 786.560228 69.8068944 787.534149 71.6432999 788.508071 73.4984922 789.480293 75.3748197 790.454214 77.2722822 791.428136 79.1861831 792.402057 81.1235675 793.374279 83.0797386 794.348201 85.0523481 795.322122 87.0460928 796.296044 89.0586242 797.268266 91.0899424 798.242187 93.1400473 799.216109 95.2089389 800.190031 97.294269 801.162252 99.3983859 802.136174 101.518941 803.110096 103.658283 804.084017 105.814064 805.056239 107.988631 806.030161 110.179636 807.004082 112.38708 807.978004 114.608614 808.950226 116.851284 809.924147 119.105695 810.898069 121.378892 811.87199 123.66618 812.844212 125.967558 813.818134 128.287722 814.792055 130.619629 815.765977 132.967973 816.738199 135.330408 817.71212 137.704585 818.686042 140.095199 819.659963 142.499904 820.632185 144.918699 821.606107 147.351585 822.580028 149.796211 823.55395 152.25258 824.526172 154.723039 825.500094 157.205239 826.474015 159.701529 827.447937 162.207213 828.420159 164.724639 829.39408 167.256154 830.368002 169.797063 831.341923 172.349714 832.314145 174.911758 833.288067 177.485544 834.261988 180.068723 835.23591 182.663644 836.208132 185.26561 837.182053 187.879317 838.155975 190.502418 839.129896 193.132564 840.103818 195.774452 841.07604 198.423385 842.049961 201.079363 843.023883 203.744734 843.997805 206.41715 844.970026 209.096612 845.943948 211.785466 846.91787 214.479018 847.891791 217.181962 848.864013 219.887255 849.837935 222.601942 850.811856 225.321325 851.785778 228.047753 852.758 230.778878 853.731921 233.5147 854.705843 236.257566 855.679764 239.002781 856.651986 241.752693 857.625908 244.507301 858.599829 247.266606 859.573751 250.025911 860.545973 252.792261 861.519894 255.56096 862.493816 258.332006 863.467737 261.105402 864.439959 263.881145 865.413881 266.659237 866.387802 269.439677 867.361724 272.222465 868.333946 275.002905 869.307867 277.788042 870.281789 280.570831 871.255711 283.355968 872.227932 286.141104 873.201854 288.926241 874.175776 291.70903 875.149697 294.494166 876.121919 297.276955 877.095841 300.057395 878.069762 302.840183 879.043684 305.615927 880.015906 308.394019 880.989827 311.169762 881.963749 313.940809 882.93767 316.709507 883.909892 319.478206 884.883814 322.237511 885.857735 324.999164 886.831657 327.753772 887.803879 330.506032 888.7778 333.253596 889.751722 335.996462 890.725643 338.734632 891.697865 341.465757 892.671787 344.192185 893.645709 346.913917 894.61963 349.628603 895.591852 352.340941 896.565774 355.043886 897.539695 357.742134 898.513617 360.430989 899.485839 363.112798 900.45976 365.787563 901.433682 368.455283 902.407603 371.113609 903.381525 373.76489 904.353747 376.409126 905.327668 379.043969 906.30159 381.66707 907.275511 384.283126 908.247733 386.889788 909.221655 389.487058 910.195576 392.074933 911.169498 394.648719 912.14172 397.21546 913.115641 399.772807 914.089563 402.316065 915.063485 404.849929 916.035706 407.372051 917.009628 409.882431 917.98355 412.38107 918.957471 414.867967 919.929693 417.340774 920.903615 419.801839 921.877536 422.248814 922.851458 424.684048 923.82368 427.109888 924.797601 429.516941 925.771523 431.912253 926.745444 434.291126 927.717666 436.658258 928.691588 439.011299 929.665509 441.347902 930.639431 443.670415 931.611653 445.978838"></polyline>
            </g>
        </g>
    </g>
</svg>